<svg width="28" height="41" viewBox="0 0 28 41" fill="none" xmlns="http://www.w3.org/2000/svg">
<path d="M24 22H4L12 31.46V38L16 40V31.46L24 22Z" stroke="#8E98AC" stroke-width="2" stroke-linecap="round" stroke-linejoin="round"/>
<path d="M13.6447 13.0771L8.40654 17.4583L3.16837 13.0771C3.09815 13.0176 3.04606 12.9342 3.01956 12.8386C2.99306 12.743 2.9935 12.6403 3.02082 12.545L3.62087 10.4053L4.82098 6.15426C4.83262 6.11962 4.85115 6.0886 4.87508 6.06369C4.91406 6.02272 4.96493 6 5.01772 6C5.0705 6 5.12138 6.02272 5.16035 6.06369C5.18563 6.0918 5.20425 6.12687 5.21446 6.16558L6.41456 10.4053H10.3985L11.5986 6.15426C11.6103 6.11962 11.6288 6.0886 11.6527 6.06369C11.6917 6.02272 11.7426 6 11.7954 6C11.8482 6 11.899 6.02272 11.938 6.06369C11.9633 6.0918 11.9819 6.12687 11.9921 6.16558L13.1922 10.4166L13.8169 12.545C13.8417 12.6432 13.8384 12.748 13.8074 12.8439C13.7764 12.9397 13.7193 13.0215 13.6447 13.0771V13.0771Z" stroke="#8E98AC" stroke-width="2" stroke-linecap="round" stroke-linejoin="round"/>
<path d="M20 9C22.2091 9 24 7.20914 24 5C24 2.79086 22.2091 1 20 1C17.7909 1 16 2.79086 16 5C16 7.20914 17.7909 9 20 9Z" stroke="#8E98AC" stroke-width="2" stroke-linecap="round" stroke-linejoin="round"/>
<path d="M24 18V16C24 14.9391 23.7893 13.9217 23.4142 13.1716C23.0391 12.4214 22.5304 12 22 12H18C17.4696 12 16.9609 12.4214 16.5858 13.1716C16.2107 13.9217 16 14.9391 16 16V18" stroke="#8E98AC" stroke-width="2" stroke-linecap="round" stroke-linejoin="round"/>
</svg>
